<svg xmlns="http://www.w3.org/2000/svg" xmlns:xlink="http://www.w3.org/1999/xlink" width="148.799" height="40" viewBox="0 0 148.799 40">
  <defs>
    <linearGradient id="linear-gradient" x1="0.125" y1="0.897" x2="0.786" y2="0.197" gradientUnits="objectBoundingBox">
      <stop offset="0" stop-color="#dd3626"/>
      <stop offset="1" stop-color="#ffbb21"/>
    </linearGradient>
    <linearGradient id="linear-gradient-2" y1="0.5" x2="1" y2="0.5" gradientUnits="objectBoundingBox">
      <stop offset="0" stop-color="#e85c22"/>
      <stop offset="1" stop-color="#ffbb21"/>
    </linearGradient>
    <linearGradient id="linear-gradient-3" x1="1.038" y1="0.151" x2="0.113" y2="0.751" xlink:href="#linear-gradient-2"/>
    <linearGradient id="linear-gradient-4" x1="0.235" y1="0.767" x2="0.64" y2="0.359" gradientUnits="objectBoundingBox">
      <stop offset="0.001" stop-color="#7b310d"/>
      <stop offset="1" stop-color="#ee6f20" stop-opacity="0"/>
    </linearGradient>
    <linearGradient id="linear-gradient-5" x1="0.393" y1="1.166" x2="0.555" y2="0.157" xlink:href="#linear-gradient-4"/>
    <linearGradient id="linear-gradient-6" x1="0.649" y1="0.325" x2="0.194" y2="0.861" xlink:href="#linear-gradient-2"/>
  </defs>
  <g id="Group_9436" data-name="Group 9436" transform="translate(-604.327 -739.407)">
    <g id="Group_9397" data-name="Group 9397" transform="translate(604.327 739.407)">
      <path id="Path_132" data-name="Path 132" d="M624.192,739.407a19.926,19.926,0,0,0-19.858,19.616c-.007.127-.007.258-.007.385a19.867,19.867,0,1,0,19.865-20Zm0,36.919c-.267,0-.534-.007-.8-.017a16.387,16.387,0,0,1-2.377-.286A16.879,16.879,0,0,1,607.569,761.9c-.01-.076-.021-.152-.031-.234l0-.024a15.847,15.847,0,0,1-.137-1.763c-.006-.131-.01-.265-.01-.4v-.076a16.806,16.806,0,1,1,16.8,16.917Z" transform="translate(-604.327 -739.407)" fill="url(#linear-gradient)"/>
      <g id="Group_9395" data-name="Group 9395" transform="translate(7.944 7.894)">
        <path id="Path_133" data-name="Path 133" d="M637.887,759.954a12.048,12.048,0,0,0-12.759,10.38,1.486,1.486,0,0,0,1.462,1.7h.1a1.494,1.494,0,0,0,1.465-1.307,8.979,8.979,0,1,1,10.175,10.243,1.5,1.5,0,0,0-1.3,1.474v.1a1.482,1.482,0,0,0,1.687,1.472,12.116,12.116,0,0,0-.834-24.064Z" transform="translate(-625.114 -759.924)" fill="url(#linear-gradient-2)"/>
      </g>
      <path id="Path_147" data-name="Path 147" d="M3.951,0A3.978,3.978,0,1,1,0,3.978,3.96,3.96,0,0,1,3.951,0Z" transform="translate(15.62 16.344) rotate(-4.45)" fill="url(#linear-gradient-3)"/>
      <g id="Group_9396" data-name="Group 9396" transform="translate(17.437 36.743)">
        <path id="Path_134" data-name="Path 134" d="M649.955,834.907h0" transform="translate(-649.952 -834.907)" fill="#e85c22"/>
      </g>
      <path id="Path_135" data-name="Path 135" d="M649.961,834.86v-.337" transform="translate(-632.521 -797.927)" fill="#e85c22"/>
      <path id="Path_136" data-name="Path 136" d="M651.414,837.957s-3.3-.706-3.341-.764-.065-2.145-.072-2.616a18.065,18.065,0,0,0,2.5.29Z" transform="translate(-631.31 -797.96)" fill="url(#linear-gradient-4)"/>
      <path id="Path_137" data-name="Path 137" d="M607.58,793.27c-.428-.1-3-.678-3.04-.733a20.981,20.981,0,0,1-.195-2.145l3.064.857a15.863,15.863,0,0,0,.137,1.763l0,.024C607.559,793.118,607.57,793.194,607.58,793.27Z" transform="translate(-604.338 -770.776)" fill="url(#linear-gradient-5)"/>
      <path id="Path_138" data-name="Path 138" d="M624.431,810.772c-.078,0-.16,0-.239,0a20.153,20.153,0,0,1-2.424-.148,19.937,19.937,0,0,1-17.293-17.42,19.689,19.689,0,0,1-.147-2.43c0-.131.007-.386.007-.386a3.27,3.27,0,0,0,3.228,2.816h8.327a5.9,5.9,0,0,1,5.878,5.914v8.248c0,.048,0,.1,0,.148v.021c0,.055,0,.114,0,.169A3.286,3.286,0,0,0,624.431,810.772Z" transform="translate(-604.327 -770.776)" fill="url(#linear-gradient-6)"/>
      <path id="Path_139" data-name="Path 139" d="M649.961,834.907v.189" transform="translate(-632.521 -798.164)" fill="#e85c22"/>
    </g>
    <g id="Group_9398" data-name="Group 9398" transform="translate(649.896 750.405)">
      <path id="Path_140" data-name="Path 140" d="M743.082,769.328v17.49H739.76v-9.491h-.409l-4.19,8.18h-3.679l-4.19-8.18h-.409v9.491h-3.321v-17.49h3.321l6.234,12.166h.409l6.234-12.166Z" transform="translate(-723.562 -768.814)" fill="#fff"/>
      <path id="Path_141" data-name="Path 141" d="M792.579,783.475v3.344h-9.913v-17.49h3.321v14.147Z" transform="translate(-760.078 -768.814)" fill="#fff"/>
      <path id="Path_142" data-name="Path 142" d="M834.479,769.328v17.49h-3.321v-9.491h-.409l-4.19,8.18h-3.679l-4.19-8.18h-.409v9.491h-3.322v-17.49h3.322l6.234,12.166h.409l6.234-12.166Z" transform="translate(-780.029 -768.814)" fill="#fff"/>
      <path id="Path_143" data-name="Path 143" d="M887.579,775.45c0,3.678-1.635,6.147-7.154,6.147h-3.04v5.221h-3.322v-17.49h6.362C885.944,769.328,887.579,771.772,887.579,775.45Zm-3.321,0c0-2.135-.665-2.778-3.245-2.778h-3.628v5.581h3.628C883.593,778.253,884.257,777.507,884.257,775.45Z" transform="translate(-816.545 -768.814)" fill="#fff"/>
      <path id="Path_144" data-name="Path 144" d="M922.352,793.605c-3.884,0-6.234-1.62-6.234-5.916v-7.331h3.322v7.073c0,2.315.792,2.829,2.913,2.829s2.912-.514,2.912-2.829v-7.073h3.322v7.331C928.587,791.985,926.236,793.605,922.352,793.605Z" transform="translate(-842.528 -775.6)" fill="#fff"/>
      <path id="Path_145" data-name="Path 145" d="M959.086,767.991v18h-3.321v-18Z" transform="translate(-867.023 -767.991)" fill="#fff"/>
      <path id="Path_146" data-name="Path 146" d="M975.84,776.093v5.464a1.091,1.091,0,0,0,1.088,1.095h2.413V786h-3.474a3.36,3.36,0,0,1-3.348-3.371v-6.532h-2.044V772.75h2.044v-4.758h3.322v4.758h3.5v3.344Z" transform="translate(-876.111 -767.991)" fill="#fff"/>
    </g>
  </g>
</svg>
